<svg id="visual" viewBox="0 0 900 600" width="900" height="600" xmlns="http://www.w3.org/2000/svg" xmlns:xlink="http://www.w3.org/1999/xlink" version="1.1"><rect x="0" y="0" width="900" height="600" fill="#002233"></rect><path d="M0 401L21.5 414.8C43 428.7 86 456.3 128.8 463.3C171.7 470.3 214.3 456.7 257.2 461.7C300 466.7 343 490.3 385.8 493.7C428.7 497 471.3 480 514.2 476.5C557 473 600 483 642.8 489.3C685.7 495.7 728.3 498.3 771.2 484.8C814 471.3 857 441.7 878.5 426.8L900 412L900 601L878.5 601C857 601 814 601 771.2 601C728.3 601 685.7 601 642.8 601C600 601 557 601 514.2 601C471.3 601 428.7 601 385.8 601C343 601 300 601 257.2 601C214.3 601 171.7 601 128.8 601C86 601 43 601 21.5 601L0 601Z" fill="#0066FF" stroke-linecap="round" stroke-linejoin="miter"></path></svg>